<svg xmlns="http://www.w3.org/2000/svg" viewBox="0 0 1052 1052">
  <path d="M266.89,595.56c-7.36,0-13.8-2.51-19.31-7.57-5.51-5.04-8.26-11.7-8.26-19.98,0-7.34,2.75-13.78,8.28-19.31l68.9-68.9c33.09-33.09,68-49.63,104.75-49.63s73.04,16.09,106.13,48.26l34.46,35.83c11.93,11.95,23.2,20.21,33.75,24.8s21.82,6.89,33.77,6.89,23.2-2.51,33.75-7.57c10.56-5.06,21.82-13.56,33.77-25.51l67.55-67.53c6.42-6.44,12.85-9.66,19.29-9.66,7.34,0,14.01,2.53,19.98,7.59s8.97,12.17,8.97,21.35c0,6.44-3.22,12.87-9.66,19.29l-67.53,68.92c-17.47,17.47-34.93,29.87-52.38,37.21-17.47,7.36-35.38,11.03-53.75,11.03s-36.3-3.67-53.77-11.03c-17.47-7.34-34.46-19.29-50.98-35.83l-35.83-35.83c-22.06-22.04-44.57-33.07-67.53-33.07s-44.12,11.5-66.15,34.46l-68.92,67.53c-5.51,5.51-11.95,8.26-19.29,8.26Z"/>
</svg>
